  0
SECTION
  2
HEADER
  9
$ACADVER
  1
AC1009
  9
$LIMMIN
 10
0.0500000000000032
 20
0.02944448818897826
  9
$LIMMAX
 10
1.932777952756029
 20
1.875555511811144
  9
$GRIDMODE
 70
112
  9
$GRIDUNIT
 10
  0
 20
  0
  9
$SNAPMODE
 70
1
  9
$SNAPSTYLE
 70
0
  9
$SNAPUNIT
 10
0.0500000000000032
 20
0.0500000000000032
  9
$FILLMODE
 70
1
  9
$CECOLOR
 62
256
  0
ENDSEC
  0
SECTION
  2
ENTITIES
  0
POLYLINE
  8
TOP
 66
      1
 70
1
 40
0.0220
 41
0.0220
  0
VERTEX
  8
TOP
 10
0.4390
 20
1.0710
 30
 0.0
 42
1.0
  0
VERTEX
  8
TOP
 10
0.4610
 20
1.0710
 30
 0.0
 42
1.0
  0
SEQEND
  8
TOP
  0
POLYLINE
  8
BOT
 66
      1
 70
1
 40
0.0220
 41
0.0220
  0
VERTEX
  8
BOT
 10
0.4390
 20
1.0710
 30
 0.0
 42
1.0
  0
VERTEX
  8
BOT
 10
0.4610
 20
1.0710
 30
 0.0
 42
1.0
  0
SEQEND
  8
BOT
  0
POLYLINE
  8
TOP
 66
      1
 70
1
 40
0.0220
 41
0.0220
  0
VERTEX
  8
TOP
 10
0.4390
 20
1.3710
 30
 0.0
 42
1.0
  0
VERTEX
  8
TOP
 10
0.4610
 20
1.3710
 30
 0.0
 42
1.0
  0
SEQEND
  8
TOP
  0
POLYLINE
  8
BOT
 66
      1
 70
1
 40
0.0220
 41
0.0220
  0
VERTEX
  8
BOT
 10
0.4390
 20
1.3710
 30
 0.0
 42
1.0
  0
VERTEX
  8
BOT
 10
0.4610
 20
1.3710
 30
 0.0
 42
1.0
  0
SEQEND
  8
BOT
  0
POLYLINE
  8
TOP
 66
      1
 70
1
 40
0.0220
 41
0.0220
  0
VERTEX
  8
TOP
 10
0.2890
 20
0.8710
 30
 0.0
 42
1.0
  0
VERTEX
  8
TOP
 10
0.3110
 20
0.8710
 30
 0.0
 42
1.0
  0
SEQEND
  8
TOP
  0
POLYLINE
  8
BOT
 66
      1
 70
1
 40
0.0220
 41
0.0220
  0
VERTEX
  8
BOT
 10
0.2890
 20
0.8710
 30
 0.0
 42
1.0
  0
VERTEX
  8
BOT
 10
0.3110
 20
0.8710
 30
 0.0
 42
1.0
  0
SEQEND
  8
BOT
  0
POLYLINE
  8
TOP
 66
      1
 70
1
 40
0.0220
 41
0.0220
  0
VERTEX
  8
TOP
 10
0.5890
 20
0.8710
 30
 0.0
 42
1.0
  0
VERTEX
  8
TOP
 10
0.6110
 20
0.8710
 30
 0.0
 42
1.0
  0
SEQEND
  8
TOP
  0
POLYLINE
  8
BOT
 66
      1
 70
1
 40
0.0220
 41
0.0220
  0
VERTEX
  8
BOT
 10
0.5890
 20
0.8710
 30
 0.0
 42
1.0
  0
VERTEX
  8
BOT
 10
0.6110
 20
0.8710
 30
 0.0
 42
1.0
  0
SEQEND
  8
BOT
  0
POLYLINE
  8
TOP
 66
      1
 70
1
 40
0.0270
 41
0.0270
  0
VERTEX
  8
TOP
 10
1.0370
 20
1.1710
 30
 0.0
 42
1.0
  0
VERTEX
  8
TOP
 10
1.0630
 20
1.1710
 30
 0.0
 42
1.0
  0
SEQEND
  8
TOP
  0
POLYLINE
  8
BOT
 66
      1
 70
1
 40
0.0270
 41
0.0270
  0
VERTEX
  8
BOT
 10
1.0370
 20
1.1710
 30
 0.0
 42
1.0
  0
VERTEX
  8
BOT
 10
1.0630
 20
1.1710
 30
 0.0
 42
1.0
  0
SEQEND
  8
BOT
  0
POLYLINE
  8
TOP
 66
      1
 70
1
 40
0.0270
 41
0.0270
  0
VERTEX
  8
TOP
 10
0.8370
 20
1.2710
 30
 0.0
 42
1.0
  0
VERTEX
  8
TOP
 10
0.8630
 20
1.2710
 30
 0.0
 42
1.0
  0
SEQEND
  8
TOP
  0
POLYLINE
  8
BOT
 66
      1
 70
1
 40
0.0270
 41
0.0270
  0
VERTEX
  8
BOT
 10
0.8370
 20
1.2710
 30
 0.0
 42
1.0
  0
VERTEX
  8
BOT
 10
0.8630
 20
1.2710
 30
 0.0
 42
1.0
  0
SEQEND
  8
BOT
  0
POLYLINE
  8
TOP
 66
      1
 70
1
 40
0.0270
 41
0.0270
  0
VERTEX
  8
TOP
 10
0.9370
 20
0.8210
 30
 0.0
 42
1.0
  0
VERTEX
  8
TOP
 10
0.9630
 20
0.8210
 30
 0.0
 42
1.0
  0
SEQEND
  8
TOP
  0
POLYLINE
  8
BOT
 66
      1
 70
1
 40
0.0270
 41
0.0270
  0
VERTEX
  8
BOT
 10
0.9370
 20
0.8210
 30
 0.0
 42
1.0
  0
VERTEX
  8
BOT
 10
0.9630
 20
0.8210
 30
 0.0
 42
1.0
  0
SEQEND
  8
BOT
  0
POLYLINE
  8
TOP
 66
      1
 70
1
 40
0.0270
 41
0.0270
  0
VERTEX
  8
TOP
 10
0.9370
 20
0.9210
 30
 0.0
 42
1.0
  0
VERTEX
  8
TOP
 10
0.9630
 20
0.9210
 30
 0.0
 42
1.0
  0
SEQEND
  8
TOP
  0
POLYLINE
  8
BOT
 66
      1
 70
1
 40
0.0270
 41
0.0270
  0
VERTEX
  8
BOT
 10
0.9370
 20
0.9210
 30
 0.0
 42
1.0
  0
VERTEX
  8
BOT
 10
0.9630
 20
0.9210
 30
 0.0
 42
1.0
  0
SEQEND
  8
BOT
 0
SOLID
  8
TOP
 10
0.9230
 20
0.9940
 11
0.9770
 21
0.9940
 12
0.9230
 22
1.0480
 13
0.9770
 23
1.0480
 0
SOLID
  8
BOT
 10
0.9230
 20
0.9940
 11
0.9770
 21
0.9940
 12
0.9230
 22
1.0480
 13
0.9770
 23
1.0480
  0
POLYLINE
  8
TOP
 66
      1
 70
1
 40
0.0260
 41
0.0260
  0
VERTEX
  8
TOP
 10
0.7120
 20
1.4210
 30
 0.0
 42
1.0
  0
VERTEX
  8
TOP
 10
0.7380
 20
1.4210
 30
 0.0
 42
1.0
  0
SEQEND
  8
TOP
  0
POLYLINE
  8
BOT
 66
      1
 70
1
 40
0.0260
 41
0.0260
  0
VERTEX
  8
BOT
 10
0.7120
 20
1.4210
 30
 0.0
 42
1.0
  0
VERTEX
  8
BOT
 10
0.7380
 20
1.4210
 30
 0.0
 42
1.0
  0
SEQEND
  8
BOT
  0
POLYLINE
  8
TOP
 66
      1
 70
1
 40
0.0260
 41
0.0260
  0
VERTEX
  8
TOP
 10
1.1370
 20
1.4210
 30
 0.0
 42
1.0
  0
VERTEX
  8
TOP
 10
1.1630
 20
1.4210
 30
 0.0
 42
1.0
  0
SEQEND
  8
TOP
  0
POLYLINE
  8
BOT
 66
      1
 70
1
 40
0.0260
 41
0.0260
  0
VERTEX
  8
BOT
 10
1.1370
 20
1.4210
 30
 0.0
 42
1.0
  0
VERTEX
  8
BOT
 10
1.1630
 20
1.4210
 30
 0.0
 42
1.0
  0
SEQEND
  8
BOT
  0
POLYLINE
  8
TOP
 66
      1
 70
1
 40
0.0260
 41
0.0260
  0
VERTEX
  8
TOP
 10
0.2870
 20
1.4460
 30
 0.0
 42
1.0
  0
VERTEX
  8
TOP
 10
0.3130
 20
1.4460
 30
 0.0
 42
1.0
  0
SEQEND
  8
TOP
  0
POLYLINE
  8
BOT
 66
      1
 70
1
 40
0.0260
 41
0.0260
  0
VERTEX
  8
BOT
 10
0.2870
 20
1.4460
 30
 0.0
 42
1.0
  0
VERTEX
  8
BOT
 10
0.3130
 20
1.4460
 30
 0.0
 42
1.0
  0
SEQEND
  8
BOT
  0
POLYLINE
  8
TOP
 66
      1
 70
1
 40
0.0260
 41
0.0260
  0
VERTEX
  8
TOP
 10
0.2870
 20
1.0210
 30
 0.0
 42
1.0
  0
VERTEX
  8
TOP
 10
0.3130
 20
1.0210
 30
 0.0
 42
1.0
  0
SEQEND
  8
TOP
  0
POLYLINE
  8
BOT
 66
      1
 70
1
 40
0.0260
 41
0.0260
  0
VERTEX
  8
BOT
 10
0.2870
 20
1.0210
 30
 0.0
 42
1.0
  0
VERTEX
  8
BOT
 10
0.3130
 20
1.0210
 30
 0.0
 42
1.0
  0
SEQEND
  8
BOT
  0
POLYLINE
  8
TOP
 66
      1
 70
1
 40
0.0260
 41
0.0260
  0
VERTEX
  8
TOP
 10
0.5870
 20
1.0210
 30
 0.0
 42
1.0
  0
VERTEX
  8
TOP
 10
0.6130
 20
1.0210
 30
 0.0
 42
1.0
  0
SEQEND
  8
TOP
  0
POLYLINE
  8
BOT
 66
      1
 70
1
 40
0.0260
 41
0.0260
  0
VERTEX
  8
BOT
 10
0.5870
 20
1.0210
 30
 0.0
 42
1.0
  0
VERTEX
  8
BOT
 10
0.6130
 20
1.0210
 30
 0.0
 42
1.0
  0
SEQEND
  8
BOT
  0
POLYLINE
  8
TOP
 66
      1
 70
1
 40
0.0260
 41
0.0260
  0
VERTEX
  8
TOP
 10
0.5870
 20
1.4460
 30
 0.0
 42
1.0
  0
VERTEX
  8
TOP
 10
0.6130
 20
1.4460
 30
 0.0
 42
1.0
  0
SEQEND
  8
TOP
  0
POLYLINE
  8
BOT
 66
      1
 70
1
 40
0.0260
 41
0.0260
  0
VERTEX
  8
BOT
 10
0.5870
 20
1.4460
 30
 0.0
 42
1.0
  0
VERTEX
  8
BOT
 10
0.6130
 20
1.4460
 30
 0.0
 42
1.0
  0
SEQEND
  8
BOT
  0
POLYLINE
  8
TOP
 66
      1
 70
1
 40
0.0260
 41
0.0260
  0
VERTEX
  8
TOP
 10
0.9120
 20
0.6710
 30
 0.0
 42
1.0
  0
VERTEX
  8
TOP
 10
0.9380
 20
0.6710
 30
 0.0
 42
1.0
  0
SEQEND
  8
TOP
  0
POLYLINE
  8
BOT
 66
      1
 70
1
 40
0.0260
 41
0.0260
  0
VERTEX
  8
BOT
 10
0.9120
 20
0.6710
 30
 0.0
 42
1.0
  0
VERTEX
  8
BOT
 10
0.9380
 20
0.6710
 30
 0.0
 42
1.0
  0
SEQEND
  8
BOT
  0
POLYLINE
  8
TOP
 66
      1
 70
1
 40
0.0260
 41
0.0260
  0
VERTEX
  8
TOP
 10
0.4870
 20
0.6710
 30
 0.0
 42
1.0
  0
VERTEX
  8
TOP
 10
0.5130
 20
0.6710
 30
 0.0
 42
1.0
  0
SEQEND
  8
TOP
  0
POLYLINE
  8
BOT
 66
      1
 70
1
 40
0.0260
 41
0.0260
  0
VERTEX
  8
BOT
 10
0.4870
 20
0.6710
 30
 0.0
 42
1.0
  0
VERTEX
  8
BOT
 10
0.5130
 20
0.6710
 30
 0.0
 42
1.0
  0
SEQEND
  8
BOT
  0
POLYLINE
  8
TOP
 66
      1
 70
1
 40
0.0550
 41
0.0550
  0
VERTEX
  8
TOP
 10
0.1230
 20
1.6710
 30
 0.0
 42
1.0
  0
VERTEX
  8
TOP
 10
0.1770
 20
1.6710
 30
 0.0
 42
1.0
  0
SEQEND
  8
TOP
  0
POLYLINE
  8
BOT
 66
      1
 70
1
 40
0.0500
 41
0.0500
  0
VERTEX
  8
BOT
 10
0.1250
 20
1.6710
 30
 0.0
 42
1.0
  0
VERTEX
  8
BOT
 10
0.1750
 20
1.6710
 30
 0.0
 42
1.0
  0
SEQEND
  8
BOT
  0
POLYLINE
  8
TOP
 66
      1
 70
1
 40
0.0550
 41
0.0550
  0
VERTEX
  8
TOP
 10
0.1230
 20
0.3210
 30
 0.0
 42
1.0
  0
VERTEX
  8
TOP
 10
0.1770
 20
0.3210
 30
 0.0
 42
1.0
  0
SEQEND
  8
TOP
  0
POLYLINE
  8
BOT
 66
      1
 70
1
 40
0.0500
 41
0.0500
  0
VERTEX
  8
BOT
 10
0.1250
 20
0.3210
 30
 0.0
 42
1.0
  0
VERTEX
  8
BOT
 10
0.1750
 20
0.3210
 30
 0.0
 42
1.0
  0
SEQEND
  8
BOT
  0
POLYLINE
  8
TOP
 66
      1
 70
1
 40
0.0550
 41
0.0550
  0
VERTEX
  8
TOP
 10
1.4230
 20
0.3210
 30
 0.0
 42
1.0
  0
VERTEX
  8
TOP
 10
1.4770
 20
0.3210
 30
 0.0
 42
1.0
  0
SEQEND
  8
TOP
  0
POLYLINE
  8
BOT
 66
      1
 70
1
 40
0.0500
 41
0.0500
  0
VERTEX
  8
BOT
 10
1.4250
 20
0.3210
 30
 0.0
 42
1.0
  0
VERTEX
  8
BOT
 10
1.4750
 20
0.3210
 30
 0.0
 42
1.0
  0
SEQEND
  8
BOT
  0
POLYLINE
  8
TOP
 66
      1
 70
1
 40
0.0550
 41
0.0550
  0
VERTEX
  8
TOP
 10
1.4230
 20
1.6710
 30
 0.0
 42
1.0
  0
VERTEX
  8
TOP
 10
1.4770
 20
1.6710
 30
 0.0
 42
1.0
  0
SEQEND
  8
TOP
  0
POLYLINE
  8
BOT
 66
      1
 70
1
 40
0.0500
 41
0.0500
  0
VERTEX
  8
BOT
 10
1.4250
 20
1.6710
 30
 0.0
 42
1.0
  0
VERTEX
  8
BOT
 10
1.4750
 20
1.6710
 30
 0.0
 42
1.0
  0
SEQEND
  8
BOT
 0
SOLID
  8
TOP
 10
0.7710
 20
1.6420
 11
0.8290
 21
1.6420
 12
0.7710
 22
1.7000
 13
0.8290
 23
1.7000
 0
SOLID
  8
BOT
 10
0.7710
 20
1.6420
 11
0.8290
 21
1.6420
 12
0.7710
 22
1.7000
 13
0.8290
 23
1.7000
 0
SOLID
  8
TOP
 10
1.0210
 20
1.6420
 11
1.0790
 21
1.6420
 12
1.0210
 22
1.7000
 13
1.0790
 23
1.7000
 0
SOLID
  8
BOT
 10
1.0210
 20
1.6420
 11
1.0790
 21
1.6420
 12
1.0210
 22
1.7000
 13
1.0790
 23
1.7000
 0
SOLID
  8
TOP
 10
0.1210
 20
0.8420
 11
0.1790
 21
0.8420
 12
0.1210
 22
0.9000
 13
0.1790
 23
0.9000
 0
SOLID
  8
BOT
 10
0.1210
 20
0.8420
 11
0.1790
 21
0.8420
 12
0.1210
 22
0.9000
 13
0.1790
 23
0.9000
 0
SOLID
  8
TOP
 10
0.1210
 20
0.5920
 11
0.1790
 21
0.5920
 12
0.1210
 22
0.6500
 13
0.1790
 23
0.6500
 0
SOLID
  8
BOT
 10
0.1210
 20
0.5920
 11
0.1790
 21
0.5920
 12
0.1210
 22
0.6500
 13
0.1790
 23
0.6500
  0
POLYLINE
  8
0
 66
      1
 70
1
 40
0.0000
 41
0.0000
  0
VERTEX
  8
0
 10
1.1910
 20
1.4750
 30
 0.0
  0
VERTEX
  8
0
 10
0.6840
 20
1.4750
 30
 0.0
  0
VERTEX
  8
0
 10
0.6840
 20
1.3670
 30
 0.0
  0
VERTEX
  8
0
 10
1.1910
 20
1.3670
 30
 0.0
  0
VERTEX
  8
0
 10
1.1910
 20
1.4750
 30
 0.0
 42
2204.300435384418
  0
SEQEND
  8
0
  0
POLYLINE
  8
0
 66
      1
 70
1
 40
0.0000
 41
0.0000
  0
VERTEX
  8
0
 10
1.1910
 20
1.4750
 30
 0.0
 42
1.0
  0
VERTEX
  8
0
 10
1.1910
 20
1.4750
 30
 0.0
 42
1.0
  0
SEQEND
  8
0
  0
POLYLINE
  8
0
 66
      1
 70
1
 40
0.0000
 41
0.0000
  0
VERTEX
  8
0
 10
0.6840
 20
1.4750
 30
 0.0
 42
1.0
  0
VERTEX
  8
0
 10
0.6840
 20
1.4750
 30
 0.0
 42
1.0
  0
SEQEND
  8
0
  0
POLYLINE
  8
0
 66
      1
 70
1
 40
0.0000
 41
0.0000
  0
VERTEX
  8
0
 10
0.6840
 20
1.3670
 30
 0.0
 42
1.0
  0
VERTEX
  8
0
 10
0.6840
 20
1.3670
 30
 0.0
 42
1.0
  0
SEQEND
  8
0
  0
POLYLINE
  8
0
 66
      1
 70
1
 40
0.0000
 41
0.0000
  0
VERTEX
  8
0
 10
1.1910
 20
1.3670
 30
 0.0
 42
1.0
  0
VERTEX
  8
0
 10
1.1910
 20
1.3670
 30
 0.0
 42
1.0
  0
SEQEND
  8
0
  0
POLYLINE
  8
0
 66
      1
 70
1
 40
0.0000
 41
0.0000
  0
VERTEX
  8
0
 10
1.1910
 20
1.4750
 30
 0.0
 42
1.0
  0
VERTEX
  8
0
 10
1.1910
 20
1.4750
 30
 0.0
 42
1.0
  0
SEQEND
  8
0
  0
POLYLINE
  8
0
 66
      1
 70
1
 40
0.0000
 41
0.0000
  0
VERTEX
  8
0
 10
0.6370
 20
0.9250
 30
 0.0
  0
VERTEX
  8
0
 10
0.2630
 20
0.9250
 30
 0.0
  0
VERTEX
  8
0
 10
0.2630
 20
0.8170
 30
 0.0
  0
VERTEX
  8
0
 10
0.6370
 20
0.8170
 30
 0.0
  0
VERTEX
  8
0
 10
0.6370
 20
0.9250
 30
 0.0
 42
4196.740112628082
  0
SEQEND
  8
0
  0
POLYLINE
  8
0
 66
      1
 70
1
 40
0.0000
 41
0.0000
  0
VERTEX
  8
0
 10
0.6370
 20
0.9250
 30
 0.0
 42
1.0
  0
VERTEX
  8
0
 10
0.6370
 20
0.9250
 30
 0.0
 42
1.0
  0
SEQEND
  8
0
  0
POLYLINE
  8
0
 66
      1
 70
1
 40
0.0000
 41
0.0000
  0
VERTEX
  8
0
 10
0.2630
 20
0.9250
 30
 0.0
 42
1.0
  0
VERTEX
  8
0
 10
0.2630
 20
0.9250
 30
 0.0
 42
1.0
  0
SEQEND
  8
0
  0
POLYLINE
  8
0
 66
      1
 70
1
 40
0.0000
 41
0.0000
  0
VERTEX
  8
0
 10
0.2630
 20
0.8170
 30
 0.0
 42
1.0
  0
VERTEX
  8
0
 10
0.2630
 20
0.8170
 30
 0.0
 42
1.0
  0
SEQEND
  8
0
  0
POLYLINE
  8
0
 66
      1
 70
1
 40
0.0000
 41
0.0000
  0
VERTEX
  8
0
 10
0.6370
 20
0.8170
 30
 0.0
 42
1.0
  0
VERTEX
  8
0
 10
0.6370
 20
0.8170
 30
 0.0
 42
1.0
  0
SEQEND
  8
0
  0
POLYLINE
  8
0
 66
      1
 70
1
 40
0.0000
 41
0.0000
  0
VERTEX
  8
0
 10
0.6370
 20
0.9250
 30
 0.0
 42
1.0
  0
VERTEX
  8
0
 10
0.6370
 20
0.9250
 30
 0.0
 42
1.0
  0
SEQEND
  8
0
  0
POLYLINE
  8
0
 66
      1
 70
1
 40
0.0000
 41
0.0000
  0
VERTEX
  8
0
 10
0.7710
 20
1.1280
 30
 0.0
  0
VERTEX
  8
0
 10
1.1290
 20
1.1280
 30
 0.0
  0
VERTEX
  8
0
 10
1.1290
 20
1.3130
 30
 0.0
  0
VERTEX
  8
0
 10
0.7710
 20
1.3130
 30
 0.0
  0
VERTEX
  8
0
 10
0.7710
 20
1.1280
 30
 0.0
 42
3443.832497309082
  0
SEQEND
  8
0
  0
POLYLINE
  8
0
 66
      1
 70
1
 40
0.0000
 41
0.0000
  0
VERTEX
  8
0
 10
0.7710
 20
1.1280
 30
 0.0
 42
1.0
  0
VERTEX
  8
0
 10
0.7710
 20
1.1280
 30
 0.0
 42
1.0
  0
SEQEND
  8
0
  0
POLYLINE
  8
0
 66
      1
 70
1
 40
0.0000
 41
0.0000
  0
VERTEX
  8
0
 10
1.1290
 20
1.1280
 30
 0.0
 42
1.0
  0
VERTEX
  8
0
 10
1.1290
 20
1.1280
 30
 0.0
 42
1.0
  0
SEQEND
  8
0
  0
POLYLINE
  8
0
 66
      1
 70
1
 40
0.0000
 41
0.0000
  0
VERTEX
  8
0
 10
1.1290
 20
1.3130
 30
 0.0
 42
1.0
  0
VERTEX
  8
0
 10
1.1290
 20
1.3130
 30
 0.0
 42
1.0
  0
SEQEND
  8
0
  0
POLYLINE
  8
0
 66
      1
 70
1
 40
0.0000
 41
0.0000
  0
VERTEX
  8
0
 10
0.7710
 20
1.3130
 30
 0.0
 42
1.0
  0
VERTEX
  8
0
 10
0.7710
 20
1.3130
 30
 0.0
 42
1.0
  0
SEQEND
  8
0
  0
POLYLINE
  8
0
 66
      1
 70
1
 40
0.0000
 41
0.0000
  0
VERTEX
  8
0
 10
0.7710
 20
1.1280
 30
 0.0
 42
1.0
  0
VERTEX
  8
0
 10
0.7710
 20
1.1280
 30
 0.0
 42
1.0
  0
SEQEND
  8
0
  0
POLYLINE
  8
0
 66
      1
 70
1
 40
0.0000
 41
0.0000
  0
VERTEX
  8
0
 10
0.5460
 20
1.4870
 30
 0.0
  0
VERTEX
  8
0
 10
0.5460
 20
0.9800
 30
 0.0
  0
VERTEX
  8
0
 10
0.6540
 20
0.9800
 30
 0.0
  0
VERTEX
  8
0
 10
0.6540
 20
1.4870
 30
 0.0
  0
VERTEX
  8
0
 10
0.5460
 20
1.4870
 30
 0.0
 42
4922.423829661913
  0
SEQEND
  8
0
  0
POLYLINE
  8
0
 66
      1
 70
1
 40
0.0000
 41
0.0000
  0
VERTEX
  8
0
 10
0.5460
 20
1.4870
 30
 0.0
 42
1.0
  0
VERTEX
  8
0
 10
0.5460
 20
1.4870
 30
 0.0
 42
1.0
  0
SEQEND
  8
0
  0
POLYLINE
  8
0
 66
      1
 70
1
 40
0.0000
 41
0.0000
  0
VERTEX
  8
0
 10
0.5460
 20
0.9800
 30
 0.0
 42
1.0
  0
VERTEX
  8
0
 10
0.5460
 20
0.9800
 30
 0.0
 42
1.0
  0
SEQEND
  8
0
  0
POLYLINE
  8
0
 66
      1
 70
1
 40
0.0000
 41
0.0000
  0
VERTEX
  8
0
 10
0.6540
 20
0.9800
 30
 0.0
 42
1.0
  0
VERTEX
  8
0
 10
0.6540
 20
0.9800
 30
 0.0
 42
1.0
  0
SEQEND
  8
0
  0
POLYLINE
  8
0
 66
      1
 70
1
 40
0.0000
 41
0.0000
  0
VERTEX
  8
0
 10
0.6540
 20
1.4870
 30
 0.0
 42
1.0
  0
VERTEX
  8
0
 10
0.6540
 20
1.4870
 30
 0.0
 42
1.0
  0
SEQEND
  8
0
  0
POLYLINE
  8
0
 66
      1
 70
1
 40
0.0000
 41
0.0000
  0
VERTEX
  8
0
 10
0.5460
 20
1.4870
 30
 0.0
 42
1.0
  0
VERTEX
  8
0
 10
0.5460
 20
1.4870
 30
 0.0
 42
1.0
  0
SEQEND
  8
0
  0
POLYLINE
  8
0
 66
      1
 70
1
 40
0.0000
 41
0.0000
  0
VERTEX
  8
0
 10
0.3540
 20
0.9800
 30
 0.0
  0
VERTEX
  8
0
 10
0.3540
 20
1.4870
 30
 0.0
  0
VERTEX
  8
0
 10
0.2460
 20
1.4870
 30
 0.0
  0
VERTEX
  8
0
 10
0.2460
 20
0.9800
 30
 0.0
  0
VERTEX
  8
0
 10
0.3540
 20
0.9800
 30
 0.0
 42
7783.819694406356
  0
SEQEND
  8
0
  0
POLYLINE
  8
0
 66
      1
 70
1
 40
0.0000
 41
0.0000
  0
VERTEX
  8
0
 10
0.3540
 20
0.9800
 30
 0.0
 42
1.0
  0
VERTEX
  8
0
 10
0.3540
 20
0.9800
 30
 0.0
 42
1.0
  0
SEQEND
  8
0
  0
POLYLINE
  8
0
 66
      1
 70
1
 40
0.0000
 41
0.0000
  0
VERTEX
  8
0
 10
0.3540
 20
1.4870
 30
 0.0
 42
1.0
  0
VERTEX
  8
0
 10
0.3540
 20
1.4870
 30
 0.0
 42
1.0
  0
SEQEND
  8
0
  0
POLYLINE
  8
0
 66
      1
 70
1
 40
0.0000
 41
0.0000
  0
VERTEX
  8
0
 10
0.2460
 20
1.4870
 30
 0.0
 42
1.0
  0
VERTEX
  8
0
 10
0.2460
 20
1.4870
 30
 0.0
 42
1.0
  0
SEQEND
  8
0
  0
POLYLINE
  8
0
 66
      1
 70
1
 40
0.0000
 41
0.0000
  0
VERTEX
  8
0
 10
0.2460
 20
0.9800
 30
 0.0
 42
1.0
  0
VERTEX
  8
0
 10
0.2460
 20
0.9800
 30
 0.0
 42
1.0
  0
SEQEND
  8
0
  0
POLYLINE
  8
0
 66
      1
 70
1
 40
0.0000
 41
0.0000
  0
VERTEX
  8
0
 10
0.3540
 20
0.9800
 30
 0.0
 42
1.0
  0
VERTEX
  8
0
 10
0.3540
 20
0.9800
 30
 0.0
 42
1.0
  0
SEQEND
  8
0
  0
POLYLINE
  8
0
 66
      1
 70
1
 40
0.0000
 41
0.0000
  0
VERTEX
  8
0
 10
0.4590
 20
0.6170
 30
 0.0
  0
VERTEX
  8
0
 10
0.9660
 20
0.6170
 30
 0.0
  0
VERTEX
  8
0
 10
0.9660
 20
0.7250
 30
 0.0
  0
VERTEX
  8
0
 10
0.4590
 20
0.7250
 30
 0.0
  0
VERTEX
  8
0
 10
0.4590
 20
0.6170
 30
 0.0
 42
5912.932047126566
  0
SEQEND
  8
0
  0
POLYLINE
  8
0
 66
      1
 70
1
 40
0.0000
 41
0.0000
  0
VERTEX
  8
0
 10
0.4590
 20
0.6170
 30
 0.0
 42
1.0
  0
VERTEX
  8
0
 10
0.4590
 20
0.6170
 30
 0.0
 42
1.0
  0
SEQEND
  8
0
  0
POLYLINE
  8
0
 66
      1
 70
1
 40
0.0000
 41
0.0000
  0
VERTEX
  8
0
 10
0.9660
 20
0.6170
 30
 0.0
 42
1.0
  0
VERTEX
  8
0
 10
0.9660
 20
0.6170
 30
 0.0
 42
1.0
  0
SEQEND
  8
0
  0
POLYLINE
  8
0
 66
      1
 70
1
 40
0.0000
 41
0.0000
  0
VERTEX
  8
0
 10
0.9660
 20
0.7250
 30
 0.0
 42
1.0
  0
VERTEX
  8
0
 10
0.9660
 20
0.7250
 30
 0.0
 42
1.0
  0
SEQEND
  8
0
  0
POLYLINE
  8
0
 66
      1
 70
1
 40
0.0000
 41
0.0000
  0
VERTEX
  8
0
 10
0.4590
 20
0.7250
 30
 0.0
 42
1.0
  0
VERTEX
  8
0
 10
0.4590
 20
0.7250
 30
 0.0
 42
1.0
  0
SEQEND
  8
0
  0
POLYLINE
  8
0
 66
      1
 70
1
 40
0.0000
 41
0.0000
  0
VERTEX
  8
0
 10
0.4590
 20
0.6170
 30
 0.0
 42
1.0
  0
VERTEX
  8
0
 10
0.4590
 20
0.6170
 30
 0.0
 42
1.0
  0
SEQEND
  8
0
  0
POLYLINE
  8
0
 66
      1
 70
1
 40
0.0000
 41
0.0000
  0
VERTEX
  8
0
 10
0.3960
 20
1.4080
 30
 0.0
  0
VERTEX
  8
0
 10
0.3960
 20
1.0330
 30
 0.0
  0
VERTEX
  8
0
 10
0.5040
 20
1.0330
 30
 0.0
  0
VERTEX
  8
0
 10
0.5040
 20
1.4080
 30
 0.0
  0
VERTEX
  8
0
 10
0.3960
 20
1.4080
 30
 0.0
 42
6902.567961632603
  0
SEQEND
  8
0
  0
POLYLINE
  8
0
 66
      1
 70
1
 40
0.0000
 41
0.0000
  0
VERTEX
  8
0
 10
0.3960
 20
1.4080
 30
 0.0
 42
1.0
  0
VERTEX
  8
0
 10
0.3960
 20
1.4080
 30
 0.0
 42
1.0
  0
SEQEND
  8
0
  0
POLYLINE
  8
0
 66
      1
 70
1
 40
0.0000
 41
0.0000
  0
VERTEX
  8
0
 10
0.3960
 20
1.0330
 30
 0.0
 42
1.0
  0
VERTEX
  8
0
 10
0.3960
 20
1.0330
 30
 0.0
 42
1.0
  0
SEQEND
  8
0
  0
POLYLINE
  8
0
 66
      1
 70
1
 40
0.0000
 41
0.0000
  0
VERTEX
  8
0
 10
0.5040
 20
1.0330
 30
 0.0
 42
1.0
  0
VERTEX
  8
0
 10
0.5040
 20
1.0330
 30
 0.0
 42
1.0
  0
SEQEND
  8
0
  0
POLYLINE
  8
0
 66
      1
 70
1
 40
0.0000
 41
0.0000
  0
VERTEX
  8
0
 10
0.5040
 20
1.4080
 30
 0.0
 42
1.0
  0
VERTEX
  8
0
 10
0.5040
 20
1.4080
 30
 0.0
 42
1.0
  0
SEQEND
  8
0
  0
POLYLINE
  8
0
 66
      1
 70
1
 40
0.0000
 41
0.0000
  0
VERTEX
  8
0
 10
0.3960
 20
1.4080
 30
 0.0
 42
1.0
  0
VERTEX
  8
0
 10
0.3960
 20
1.4080
 30
 0.0
 42
1.0
  0
SEQEND
  8
0
  0
POLYLINE
  8
0
 66
      1
 70
1
 40
0.0000
 41
0.0000
  0
VERTEX
  8
0
 10
0.0960
 20
0.5670
 30
 0.0
  0
VERTEX
  8
0
 10
0.2040
 20
0.5670
 30
 0.0
  0
VERTEX
  8
0
 10
0.2040
 20
0.6750
 30
 0.0
  0
VERTEX
  8
0
 10
0.0960
 20
0.6750
 30
 0.0
  0
VERTEX
  8
0
 10
0.0960
 20
0.5670
 30
 0.0
 42
35310.33252511881
  0
SEQEND
  8
0
  0
POLYLINE
  8
0
 66
      1
 70
1
 40
0.0000
 41
0.0000
  0
VERTEX
  8
0
 10
0.0960
 20
0.5670
 30
 0.0
 42
1.0
  0
VERTEX
  8
0
 10
0.0960
 20
0.5670
 30
 0.0
 42
1.0
  0
SEQEND
  8
0
  0
POLYLINE
  8
0
 66
      1
 70
1
 40
0.0000
 41
0.0000
  0
VERTEX
  8
0
 10
0.2040
 20
0.5670
 30
 0.0
 42
1.0
  0
VERTEX
  8
0
 10
0.2040
 20
0.5670
 30
 0.0
 42
1.0
  0
SEQEND
  8
0
  0
POLYLINE
  8
0
 66
      1
 70
1
 40
0.0000
 41
0.0000
  0
VERTEX
  8
0
 10
0.2040
 20
0.6750
 30
 0.0
 42
1.0
  0
VERTEX
  8
0
 10
0.2040
 20
0.6750
 30
 0.0
 42
1.0
  0
SEQEND
  8
0
  0
POLYLINE
  8
0
 66
      1
 70
1
 40
0.0000
 41
0.0000
  0
VERTEX
  8
0
 10
0.0960
 20
0.6750
 30
 0.0
 42
1.0
  0
VERTEX
  8
0
 10
0.0960
 20
0.6750
 30
 0.0
 42
1.0
  0
SEQEND
  8
0
  0
POLYLINE
  8
0
 66
      1
 70
1
 40
0.0000
 41
0.0000
  0
VERTEX
  8
0
 10
0.0960
 20
0.5670
 30
 0.0
 42
1.0
  0
VERTEX
  8
0
 10
0.0960
 20
0.5670
 30
 0.0
 42
1.0
  0
SEQEND
  8
0
  0
POLYLINE
  8
0
 66
      1
 70
1
 40
0.0000
 41
0.0000
  0
VERTEX
  8
0
 10
0.8710
 20
1.0630
 30
 0.0
  0
VERTEX
  8
0
 10
0.8710
 20
0.7780
 30
 0.0
  0
VERTEX
  8
0
 10
1.0590
 20
0.7780
 30
 0.0
  0
VERTEX
  8
0
 10
1.0590
 20
1.0630
 30
 0.0
  0
VERTEX
  8
0
 10
0.8710
 20
1.0630
 30
 0.0
 42
3038.054704622582
  0
SEQEND
  8
0
  0
POLYLINE
  8
0
 66
      1
 70
1
 40
0.0000
 41
0.0000
  0
VERTEX
  8
0
 10
0.8710
 20
1.0630
 30
 0.0
 42
1.0
  0
VERTEX
  8
0
 10
0.8710
 20
1.0630
 30
 0.0
 42
1.0
  0
SEQEND
  8
0
  0
POLYLINE
  8
0
 66
      1
 70
1
 40
0.0000
 41
0.0000
  0
VERTEX
  8
0
 10
0.8710
 20
0.7780
 30
 0.0
 42
1.0
  0
VERTEX
  8
0
 10
0.8710
 20
0.7780
 30
 0.0
 42
1.0
  0
SEQEND
  8
0
  0
POLYLINE
  8
0
 66
      1
 70
1
 40
0.0000
 41
0.0000
  0
VERTEX
  8
0
 10
1.0590
 20
0.7780
 30
 0.0
 42
1.0
  0
VERTEX
  8
0
 10
1.0590
 20
0.7780
 30
 0.0
 42
1.0
  0
SEQEND
  8
0
  0
POLYLINE
  8
0
 66
      1
 70
1
 40
0.0000
 41
0.0000
  0
VERTEX
  8
0
 10
1.0590
 20
1.0630
 30
 0.0
 42
1.0
  0
VERTEX
  8
0
 10
1.0590
 20
1.0630
 30
 0.0
 42
1.0
  0
SEQEND
  8
0
  0
POLYLINE
  8
0
 66
      1
 70
1
 40
0.0000
 41
0.0000
  0
VERTEX
  8
0
 10
0.8710
 20
1.0630
 30
 0.0
 42
1.0
  0
VERTEX
  8
0
 10
0.8710
 20
1.0630
 30
 0.0
 42
1.0
  0
SEQEND
  8
0
  0
POLYLINE
  8
0
 66
      1
 70
1
 40
0.0500
 41
0.0500
  0
VERTEX
  8
0
 10
0.0000
 20
0.2210
 30
 0.0
  0
VERTEX
  8
0
 10
1.5900
 20
0.2210
 30
 0.0
  0
VERTEX
  8
0
 10
1.5900
 20
1.8010
 30
 0.0
  0
VERTEX
  8
0
 10
0.0000
 20
1.8010
 30
 0.0
  0
VERTEX
  8
0
 10
0.0000
 20
0.2210
 30
 0.0
 42
8.912531635832449e-006
  0
SEQEND
  8
0
  0
POLYLINE
  8
0
 66
      1
 70
1
 40
0.0250
 41
0.0250
  0
VERTEX
  8
0
 10
-0.0125
 20
0.2210
 30
 0.0
 42
1.0
  0
VERTEX
  8
0
 10
0.0125
 20
0.2210
 30
 0.0
 42
1.0
  0
SEQEND
  8
0
  0
POLYLINE
  8
0
 66
      1
 70
1
 40
0.0250
 41
0.0250
  0
VERTEX
  8
0
 10
1.5775
 20
0.2210
 30
 0.0
 42
1.0
  0
VERTEX
  8
0
 10
1.6025
 20
0.2210
 30
 0.0
 42
1.0
  0
SEQEND
  8
0
  0
POLYLINE
  8
0
 66
      1
 70
1
 40
0.0250
 41
0.0250
  0
VERTEX
  8
0
 10
1.5775
 20
1.8010
 30
 0.0
 42
1.0
  0
VERTEX
  8
0
 10
1.6025
 20
1.8010
 30
 0.0
 42
1.0
  0
SEQEND
  8
0
  0
POLYLINE
  8
0
 66
      1
 70
1
 40
0.0250
 41
0.0250
  0
VERTEX
  8
0
 10
-0.0125
 20
1.8010
 30
 0.0
 42
1.0
  0
VERTEX
  8
0
 10
0.0125
 20
1.8010
 30
 0.0
 42
1.0
  0
SEQEND
  8
0
  0
POLYLINE
  8
0
 66
      1
 70
1
 40
0.0250
 41
0.0250
  0
VERTEX
  8
0
 10
-0.0125
 20
0.2210
 30
 0.0
 42
1.0
  0
VERTEX
  8
0
 10
0.0125
 20
0.2210
 30
 0.0
 42
1.0
  0
SEQEND
  8
0
  0
POLYLINE
  8
0
 66
      1
 70
1
 40
0.0000
 41
0.0000
  0
VERTEX
  8
0
 10
0.0800
 20
1.6010
 30
 0.0
  0
VERTEX
  8
0
 10
0.0800
 20
1.7410
 30
 0.0
  0
VERTEX
  8
0
 10
0.2200
 20
1.7410
 30
 0.0
  0
VERTEX
  8
0
 10
0.2200
 20
1.6010
 30
 0.0
  0
VERTEX
  8
0
 10
0.0800
 20
1.6010
 30
 0.0
 42
45116.78839616159
  0
SEQEND
  8
0
  0
POLYLINE
  8
0
 66
      1
 70
1
 40
0.0000
 41
0.0000
  0
VERTEX
  8
0
 10
0.0800
 20
1.6010
 30
 0.0
 42
1.0
  0
VERTEX
  8
0
 10
0.0800
 20
1.6010
 30
 0.0
 42
1.0
  0
SEQEND
  8
0
  0
POLYLINE
  8
0
 66
      1
 70
1
 40
0.0000
 41
0.0000
  0
VERTEX
  8
0
 10
0.0800
 20
1.7410
 30
 0.0
 42
1.0
  0
VERTEX
  8
0
 10
0.0800
 20
1.7410
 30
 0.0
 42
1.0
  0
SEQEND
  8
0
  0
POLYLINE
  8
0
 66
      1
 70
1
 40
0.0000
 41
0.0000
  0
VERTEX
  8
0
 10
0.2200
 20
1.7410
 30
 0.0
 42
1.0
  0
VERTEX
  8
0
 10
0.2200
 20
1.7410
 30
 0.0
 42
1.0
  0
SEQEND
  8
0
  0
POLYLINE
  8
0
 66
      1
 70
1
 40
0.0000
 41
0.0000
  0
VERTEX
  8
0
 10
0.2200
 20
1.6010
 30
 0.0
 42
1.0
  0
VERTEX
  8
0
 10
0.2200
 20
1.6010
 30
 0.0
 42
1.0
  0
SEQEND
  8
0
  0
POLYLINE
  8
0
 66
      1
 70
1
 40
0.0000
 41
0.0000
  0
VERTEX
  8
0
 10
0.0800
 20
1.6010
 30
 0.0
 42
1.0
  0
VERTEX
  8
0
 10
0.0800
 20
1.6010
 30
 0.0
 42
1.0
  0
SEQEND
  8
0
  0
POLYLINE
  8
0
 66
      1
 70
1
 40
0.0000
 41
0.0000
  0
VERTEX
  8
0
 10
0.0800
 20
0.2510
 30
 0.0
  0
VERTEX
  8
0
 10
0.0800
 20
0.3910
 30
 0.0
  0
VERTEX
  8
0
 10
0.2200
 20
0.3910
 30
 0.0
  0
VERTEX
  8
0
 10
0.2200
 20
0.2510
 30
 0.0
  0
VERTEX
  8
0
 10
0.0800
 20
0.2510
 30
 0.0
 42
45249.59852779779
  0
SEQEND
  8
0
  0
POLYLINE
  8
0
 66
      1
 70
1
 40
0.0000
 41
0.0000
  0
VERTEX
  8
0
 10
0.0800
 20
0.2510
 30
 0.0
 42
1.0
  0
VERTEX
  8
0
 10
0.0800
 20
0.2510
 30
 0.0
 42
1.0
  0
SEQEND
  8
0
  0
POLYLINE
  8
0
 66
      1
 70
1
 40
0.0000
 41
0.0000
  0
VERTEX
  8
0
 10
0.0800
 20
0.3910
 30
 0.0
 42
1.0
  0
VERTEX
  8
0
 10
0.0800
 20
0.3910
 30
 0.0
 42
1.0
  0
SEQEND
  8
0
  0
POLYLINE
  8
0
 66
      1
 70
1
 40
0.0000
 41
0.0000
  0
VERTEX
  8
0
 10
0.2200
 20
0.3910
 30
 0.0
 42
1.0
  0
VERTEX
  8
0
 10
0.2200
 20
0.3910
 30
 0.0
 42
1.0
  0
SEQEND
  8
0
  0
POLYLINE
  8
0
 66
      1
 70
1
 40
0.0000
 41
0.0000
  0
VERTEX
  8
0
 10
0.2200
 20
0.2510
 30
 0.0
 42
1.0
  0
VERTEX
  8
0
 10
0.2200
 20
0.2510
 30
 0.0
 42
1.0
  0
SEQEND
  8
0
  0
POLYLINE
  8
0
 66
      1
 70
1
 40
0.0000
 41
0.0000
  0
VERTEX
  8
0
 10
0.0800
 20
0.2510
 30
 0.0
 42
1.0
  0
VERTEX
  8
0
 10
0.0800
 20
0.2510
 30
 0.0
 42
1.0
  0
SEQEND
  8
0
  0
POLYLINE
  8
0
 66
      1
 70
1
 40
0.0000
 41
0.0000
  0
VERTEX
  8
0
 10
1.3800
 20
0.2510
 30
 0.0
  0
VERTEX
  8
0
 10
1.3800
 20
0.3910
 30
 0.0
  0
VERTEX
  8
0
 10
1.5200
 20
0.3910
 30
 0.0
  0
VERTEX
  8
0
 10
1.5200
 20
0.2510
 30
 0.0
  0
VERTEX
  8
0
 10
1.3800
 20
0.2510
 30
 0.0
 42
1900.97181709545
  0
SEQEND
  8
0
  0
POLYLINE
  8
0
 66
      1
 70
1
 40
0.0000
 41
0.0000
  0
VERTEX
  8
0
 10
1.3800
 20
0.2510
 30
 0.0
 42
1.0
  0
VERTEX
  8
0
 10
1.3800
 20
0.2510
 30
 0.0
 42
1.0
  0
SEQEND
  8
0
  0
POLYLINE
  8
0
 66
      1
 70
1
 40
0.0000
 41
0.0000
  0
VERTEX
  8
0
 10
1.3800
 20
0.3910
 30
 0.0
 42
1.0
  0
VERTEX
  8
0
 10
1.3800
 20
0.3910
 30
 0.0
 42
1.0
  0
SEQEND
  8
0
  0
POLYLINE
  8
0
 66
      1
 70
1
 40
0.0000
 41
0.0000
  0
VERTEX
  8
0
 10
1.5200
 20
0.3910
 30
 0.0
 42
1.0
  0
VERTEX
  8
0
 10
1.5200
 20
0.3910
 30
 0.0
 42
1.0
  0
SEQEND
  8
0
  0
POLYLINE
  8
0
 66
      1
 70
1
 40
0.0000
 41
0.0000
  0
VERTEX
  8
0
 10
1.5200
 20
0.2510
 30
 0.0
 42
1.0
  0
VERTEX
  8
0
 10
1.5200
 20
0.2510
 30
 0.0
 42
1.0
  0
SEQEND
  8
0
  0
POLYLINE
  8
0
 66
      1
 70
1
 40
0.0000
 41
0.0000
  0
VERTEX
  8
0
 10
1.3800
 20
0.2510
 30
 0.0
 42
1.0
  0
VERTEX
  8
0
 10
1.3800
 20
0.2510
 30
 0.0
 42
1.0
  0
SEQEND
  8
0
  0
POLYLINE
  8
0
 66
      1
 70
1
 40
0.0000
 41
0.0000
  0
VERTEX
  8
0
 10
1.3800
 20
1.6010
 30
 0.0
  0
VERTEX
  8
0
 10
1.3800
 20
1.7410
 30
 0.0
  0
VERTEX
  8
0
 10
1.5200
 20
1.7410
 30
 0.0
  0
VERTEX
  8
0
 10
1.5200
 20
1.6010
 30
 0.0
  0
VERTEX
  8
0
 10
1.3800
 20
1.6010
 30
 0.0
 42
1896.925206453877
  0
SEQEND
  8
0
  0
POLYLINE
  8
0
 66
      1
 70
1
 40
0.0000
 41
0.0000
  0
VERTEX
  8
0
 10
1.3800
 20
1.6010
 30
 0.0
 42
1.0
  0
VERTEX
  8
0
 10
1.3800
 20
1.6010
 30
 0.0
 42
1.0
  0
SEQEND
  8
0
  0
POLYLINE
  8
0
 66
      1
 70
1
 40
0.0000
 41
0.0000
  0
VERTEX
  8
0
 10
1.3800
 20
1.7410
 30
 0.0
 42
1.0
  0
VERTEX
  8
0
 10
1.3800
 20
1.7410
 30
 0.0
 42
1.0
  0
SEQEND
  8
0
  0
POLYLINE
  8
0
 66
      1
 70
1
 40
0.0000
 41
0.0000
  0
VERTEX
  8
0
 10
1.5200
 20
1.7410
 30
 0.0
 42
1.0
  0
VERTEX
  8
0
 10
1.5200
 20
1.7410
 30
 0.0
 42
1.0
  0
SEQEND
  8
0
  0
POLYLINE
  8
0
 66
      1
 70
1
 40
0.0000
 41
0.0000
  0
VERTEX
  8
0
 10
1.5200
 20
1.6010
 30
 0.0
 42
1.0
  0
VERTEX
  8
0
 10
1.5200
 20
1.6010
 30
 0.0
 42
1.0
  0
SEQEND
  8
0
  0
POLYLINE
  8
0
 66
      1
 70
1
 40
0.0000
 41
0.0000
  0
VERTEX
  8
0
 10
1.3800
 20
1.6010
 30
 0.0
 42
1.0
  0
VERTEX
  8
0
 10
1.3800
 20
1.6010
 30
 0.0
 42
1.0
  0
SEQEND
  8
0
  0
POLYLINE
  8
0
 66
      1
 70
1
 40
0.0000
 41
0.0000
  0
VERTEX
  8
0
 10
0.7460
 20
1.6170
 30
 0.0
  0
VERTEX
  8
0
 10
0.8540
 20
1.6170
 30
 0.0
  0
VERTEX
  8
0
 10
0.8540
 20
1.7250
 30
 0.0
  0
VERTEX
  8
0
 10
0.7460
 20
1.7250
 30
 0.0
  0
VERTEX
  8
0
 10
0.7460
 20
1.6170
 30
 0.0
 42
3560.116036684621
  0
SEQEND
  8
0
  0
POLYLINE
  8
0
 66
      1
 70
1
 40
0.0000
 41
0.0000
  0
VERTEX
  8
0
 10
0.7460
 20
1.6170
 30
 0.0
 42
1.0
  0
VERTEX
  8
0
 10
0.7460
 20
1.6170
 30
 0.0
 42
1.0
  0
SEQEND
  8
0
  0
POLYLINE
  8
0
 66
      1
 70
1
 40
0.0000
 41
0.0000
  0
VERTEX
  8
0
 10
0.8540
 20
1.6170
 30
 0.0
 42
1.0
  0
VERTEX
  8
0
 10
0.8540
 20
1.6170
 30
 0.0
 42
1.0
  0
SEQEND
  8
0
  0
POLYLINE
  8
0
 66
      1
 70
1
 40
0.0000
 41
0.0000
  0
VERTEX
  8
0
 10
0.8540
 20
1.7250
 30
 0.0
 42
1.0
  0
VERTEX
  8
0
 10
0.8540
 20
1.7250
 30
 0.0
 42
1.0
  0
SEQEND
  8
0
  0
POLYLINE
  8
0
 66
      1
 70
1
 40
0.0000
 41
0.0000
  0
VERTEX
  8
0
 10
0.7460
 20
1.7250
 30
 0.0
 42
1.0
  0
VERTEX
  8
0
 10
0.7460
 20
1.7250
 30
 0.0
 42
1.0
  0
SEQEND
  8
0
  0
POLYLINE
  8
0
 66
      1
 70
1
 40
0.0000
 41
0.0000
  0
VERTEX
  8
0
 10
0.7460
 20
1.6170
 30
 0.0
 42
1.0
  0
VERTEX
  8
0
 10
0.7460
 20
1.6170
 30
 0.0
 42
1.0
  0
SEQEND
  8
0
  0
POLYLINE
  8
0
 66
      1
 70
1
 40
0.0000
 41
0.0000
  0
VERTEX
  8
0
 10
0.9960
 20
1.6170
 30
 0.0
  0
VERTEX
  8
0
 10
1.1040
 20
1.6170
 30
 0.0
  0
VERTEX
  8
0
 10
1.1040
 20
1.7250
 30
 0.0
  0
VERTEX
  8
0
 10
0.9960
 20
1.7250
 30
 0.0
  0
VERTEX
  8
0
 10
0.9960
 20
1.6170
 30
 0.0
 42
2645.444482203699
  0
SEQEND
  8
0
  0
POLYLINE
  8
0
 66
      1
 70
1
 40
0.0000
 41
0.0000
  0
VERTEX
  8
0
 10
0.9960
 20
1.6170
 30
 0.0
 42
1.0
  0
VERTEX
  8
0
 10
0.9960
 20
1.6170
 30
 0.0
 42
1.0
  0
SEQEND
  8
0
  0
POLYLINE
  8
0
 66
      1
 70
1
 40
0.0000
 41
0.0000
  0
VERTEX
  8
0
 10
1.1040
 20
1.6170
 30
 0.0
 42
1.0
  0
VERTEX
  8
0
 10
1.1040
 20
1.6170
 30
 0.0
 42
1.0
  0
SEQEND
  8
0
  0
POLYLINE
  8
0
 66
      1
 70
1
 40
0.0000
 41
0.0000
  0
VERTEX
  8
0
 10
1.1040
 20
1.7250
 30
 0.0
 42
1.0
  0
VERTEX
  8
0
 10
1.1040
 20
1.7250
 30
 0.0
 42
1.0
  0
SEQEND
  8
0
  0
POLYLINE
  8
0
 66
      1
 70
1
 40
0.0000
 41
0.0000
  0
VERTEX
  8
0
 10
0.9960
 20
1.7250
 30
 0.0
 42
1.0
  0
VERTEX
  8
0
 10
0.9960
 20
1.7250
 30
 0.0
 42
1.0
  0
SEQEND
  8
0
  0
POLYLINE
  8
0
 66
      1
 70
1
 40
0.0000
 41
0.0000
  0
VERTEX
  8
0
 10
0.9960
 20
1.6170
 30
 0.0
 42
1.0
  0
VERTEX
  8
0
 10
0.9960
 20
1.6170
 30
 0.0
 42
1.0
  0
SEQEND
  8
0
  0
POLYLINE
  8
0
 66
      1
 70
1
 40
0.0000
 41
0.0000
  0
VERTEX
  8
0
 10
0.0960
 20
0.8170
 30
 0.0
  0
VERTEX
  8
0
 10
0.2040
 20
0.8170
 30
 0.0
  0
VERTEX
  8
0
 10
0.2040
 20
0.9250
 30
 0.0
  0
VERTEX
  8
0
 10
0.0960
 20
0.9250
 30
 0.0
  0
VERTEX
  8
0
 10
0.0960
 20
0.8170
 30
 0.0
 42
35292.33005776734
  0
SEQEND
  8
0
  0
POLYLINE
  8
0
 66
      1
 70
1
 40
0.0000
 41
0.0000
  0
VERTEX
  8
0
 10
0.0960
 20
0.8170
 30
 0.0
 42
1.0
  0
VERTEX
  8
0
 10
0.0960
 20
0.8170
 30
 0.0
 42
1.0
  0
SEQEND
  8
0
  0
POLYLINE
  8
0
 66
      1
 70
1
 40
0.0000
 41
0.0000
  0
VERTEX
  8
0
 10
0.2040
 20
0.8170
 30
 0.0
 42
1.0
  0
VERTEX
  8
0
 10
0.2040
 20
0.8170
 30
 0.0
 42
1.0
  0
SEQEND
  8
0
  0
POLYLINE
  8
0
 66
      1
 70
1
 40
0.0000
 41
0.0000
  0
VERTEX
  8
0
 10
0.2040
 20
0.9250
 30
 0.0
 42
1.0
  0
VERTEX
  8
0
 10
0.2040
 20
0.9250
 30
 0.0
 42
1.0
  0
SEQEND
  8
0
  0
POLYLINE
  8
0
 66
      1
 70
1
 40
0.0000
 41
0.0000
  0
VERTEX
  8
0
 10
0.0960
 20
0.9250
 30
 0.0
 42
1.0
  0
VERTEX
  8
0
 10
0.0960
 20
0.9250
 30
 0.0
 42
1.0
  0
SEQEND
  8
0
  0
POLYLINE
  8
0
 66
      1
 70
1
 40
0.0000
 41
0.0000
  0
VERTEX
  8
0
 10
0.0960
 20
0.8170
 30
 0.0
 42
1.0
  0
VERTEX
  8
0
 10
0.0960
 20
0.8170
 30
 0.0
 42
1.0
  0
SEQEND
  8
0
  0
POLYLINE
  8
BOT
 66
      1
 70
0
 40
0.0200
 41
0.0200
  0
VERTEX
  8
BOT
 10
0.6000
 20
0.8710
 30
 0.0
  0
VERTEX
  8
BOT
 10
0.4500
 20
0.8710
 30
 0.0
  0
SEQEND
  8
BOT
  0
POLYLINE
  8
BOT
 66
      1
 70
1
 40
0.0100
 41
0.0100
  0
VERTEX
  8
BOT
 10
0.5950
 20
0.8710
 30
 0.0
 42
1.0
  0
VERTEX
  8
BOT
 10
0.6050
 20
0.8710
 30
 0.0
 42
1.0
  0
SEQEND
  8
BOT
  0
POLYLINE
  8
BOT
 66
      1
 70
1
 40
0.0100
 41
0.0100
  0
VERTEX
  8
BOT
 10
0.4450
 20
0.8710
 30
 0.0
 42
1.0
  0
VERTEX
  8
BOT
 10
0.4550
 20
0.8710
 30
 0.0
 42
1.0
  0
SEQEND
  8
BOT
  0
POLYLINE
  8
BOT
 66
      1
 70
0
 40
0.0200
 41
0.0200
  0
VERTEX
  8
BOT
 10
0.4500
 20
0.8710
 30
 0.0
  0
VERTEX
  8
BOT
 10
0.3000
 20
1.0210
 30
 0.0
  0
SEQEND
  8
BOT
  0
POLYLINE
  8
BOT
 66
      1
 70
1
 40
0.0100
 41
0.0100
  0
VERTEX
  8
BOT
 10
0.4450
 20
0.8710
 30
 0.0
 42
1.0
  0
VERTEX
  8
BOT
 10
0.4550
 20
0.8710
 30
 0.0
 42
1.0
  0
SEQEND
  8
BOT
  0
POLYLINE
  8
BOT
 66
      1
 70
1
 40
0.0100
 41
0.0100
  0
VERTEX
  8
BOT
 10
0.2950
 20
1.0210
 30
 0.0
 42
1.0
  0
VERTEX
  8
BOT
 10
0.3050
 20
1.0210
 30
 0.0
 42
1.0
  0
SEQEND
  8
BOT
  0
POLYLINE
  8
BOT
 66
      1
 70
0
 40
0.0200
 41
0.0200
  0
VERTEX
  8
BOT
 10
0.8500
 20
1.2710
 30
 0.0
  0
VERTEX
  8
BOT
 10
0.8500
 20
1.1710
 30
 0.0
  0
SEQEND
  8
BOT
  0
POLYLINE
  8
BOT
 66
      1
 70
1
 40
0.0100
 41
0.0100
  0
VERTEX
  8
BOT
 10
0.8450
 20
1.2710
 30
 0.0
 42
1.0
  0
VERTEX
  8
BOT
 10
0.8550
 20
1.2710
 30
 0.0
 42
1.0
  0
SEQEND
  8
BOT
  0
POLYLINE
  8
BOT
 66
      1
 70
1
 40
0.0100
 41
0.0100
  0
VERTEX
  8
BOT
 10
0.8450
 20
1.1710
 30
 0.0
 42
1.0
  0
VERTEX
  8
BOT
 10
0.8550
 20
1.1710
 30
 0.0
 42
1.0
  0
SEQEND
  8
BOT
  0
POLYLINE
  8
BOT
 66
      1
 70
0
 40
0.0200
 41
0.0200
  0
VERTEX
  8
BOT
 10
0.8500
 20
1.1710
 30
 0.0
  0
VERTEX
  8
BOT
 10
0.9500
 20
1.1710
 30
 0.0
  0
SEQEND
  8
BOT
  0
POLYLINE
  8
BOT
 66
      1
 70
1
 40
0.0100
 41
0.0100
  0
VERTEX
  8
BOT
 10
0.8450
 20
1.1710
 30
 0.0
 42
1.0
  0
VERTEX
  8
BOT
 10
0.8550
 20
1.1710
 30
 0.0
 42
1.0
  0
SEQEND
  8
BOT
  0
POLYLINE
  8
BOT
 66
      1
 70
1
 40
0.0100
 41
0.0100
  0
VERTEX
  8
BOT
 10
0.9450
 20
1.1710
 30
 0.0
 42
1.0
  0
VERTEX
  8
BOT
 10
0.9550
 20
1.1710
 30
 0.0
 42
1.0
  0
SEQEND
  8
BOT
  0
POLYLINE
  8
BOT
 66
      1
 70
0
 40
0.0200
 41
0.0200
  0
VERTEX
  8
BOT
 10
0.9500
 20
1.1710
 30
 0.0
  0
VERTEX
  8
BOT
 10
0.9500
 20
1.0210
 30
 0.0
  0
SEQEND
  8
BOT
  0
POLYLINE
  8
BOT
 66
      1
 70
1
 40
0.0100
 41
0.0100
  0
VERTEX
  8
BOT
 10
0.9450
 20
1.1710
 30
 0.0
 42
1.0
  0
VERTEX
  8
BOT
 10
0.9550
 20
1.1710
 30
 0.0
 42
1.0
  0
SEQEND
  8
BOT
  0
POLYLINE
  8
BOT
 66
      1
 70
1
 40
0.0100
 41
0.0100
  0
VERTEX
  8
BOT
 10
0.9450
 20
1.0210
 30
 0.0
 42
1.0
  0
VERTEX
  8
BOT
 10
0.9550
 20
1.0210
 30
 0.0
 42
1.0
  0
SEQEND
  8
BOT
  0
POLYLINE
  8
BOT
 66
      1
 70
0
 40
0.0200
 41
0.0200
  0
VERTEX
  8
BOT
 10
0.4500
 20
1.0710
 30
 0.0
  0
VERTEX
  8
BOT
 10
1.0500
 20
1.6710
 30
 0.0
  0
SEQEND
  8
BOT
  0
POLYLINE
  8
BOT
 66
      1
 70
1
 40
0.0100
 41
0.0100
  0
VERTEX
  8
BOT
 10
0.4450
 20
1.0710
 30
 0.0
 42
1.0
  0
VERTEX
  8
BOT
 10
0.4550
 20
1.0710
 30
 0.0
 42
1.0
  0
SEQEND
  8
BOT
  0
POLYLINE
  8
BOT
 66
      1
 70
1
 40
0.0100
 41
0.0100
  0
VERTEX
  8
BOT
 10
1.0450
 20
1.6710
 30
 0.0
 42
1.0
  0
VERTEX
  8
BOT
 10
1.0550
 20
1.6710
 30
 0.0
 42
1.0
  0
SEQEND
  8
BOT
  0
POLYLINE
  8
BOT
 66
      1
 70
0
 40
0.0300
 41
0.0300
  0
VERTEX
  8
BOT
 10
0.7250
 20
1.4210
 30
 0.0
  0
VERTEX
  8
BOT
 10
0.7250
 20
1.5960
 30
 0.0
  0
SEQEND
  8
BOT
  0
POLYLINE
  8
BOT
 66
      1
 70
1
 40
0.0150
 41
0.0150
  0
VERTEX
  8
BOT
 10
0.7175
 20
1.4210
 30
 0.0
 42
1.0
  0
VERTEX
  8
BOT
 10
0.7325
 20
1.4210
 30
 0.0
 42
1.0
  0
SEQEND
  8
BOT
  0
POLYLINE
  8
BOT
 66
      1
 70
1
 40
0.0150
 41
0.0150
  0
VERTEX
  8
BOT
 10
0.7175
 20
1.5960
 30
 0.0
 42
1.0
  0
VERTEX
  8
BOT
 10
0.7325
 20
1.5960
 30
 0.0
 42
1.0
  0
SEQEND
  8
BOT
  0
POLYLINE
  8
BOT
 66
      1
 70
0
 40
0.0300
 41
0.0300
  0
VERTEX
  8
BOT
 10
0.7250
 20
1.5960
 30
 0.0
  0
VERTEX
  8
BOT
 10
0.8000
 20
1.6710
 30
 0.0
  0
SEQEND
  8
BOT
  0
POLYLINE
  8
BOT
 66
      1
 70
1
 40
0.0150
 41
0.0150
  0
VERTEX
  8
BOT
 10
0.7175
 20
1.5960
 30
 0.0
 42
1.0
  0
VERTEX
  8
BOT
 10
0.7325
 20
1.5960
 30
 0.0
 42
1.0
  0
SEQEND
  8
BOT
  0
POLYLINE
  8
BOT
 66
      1
 70
1
 40
0.0150
 41
0.0150
  0
VERTEX
  8
BOT
 10
0.7925
 20
1.6710
 30
 0.0
 42
1.0
  0
VERTEX
  8
BOT
 10
0.8075
 20
1.6710
 30
 0.0
 42
1.0
  0
SEQEND
  8
BOT
  0
POLYLINE
  8
BOT
 66
      1
 70
0
 40
0.0200
 41
0.0200
  0
VERTEX
  8
BOT
 10
0.3000
 20
1.4460
 30
 0.0
  0
VERTEX
  8
BOT
 10
0.3000
 20
1.3910
 30
 0.0
  0
SEQEND
  8
BOT
  0
POLYLINE
  8
BOT
 66
      1
 70
1
 40
0.0100
 41
0.0100
  0
VERTEX
  8
BOT
 10
0.2950
 20
1.4460
 30
 0.0
 42
1.0
  0
VERTEX
  8
BOT
 10
0.3050
 20
1.4460
 30
 0.0
 42
1.0
  0
SEQEND
  8
BOT
  0
POLYLINE
  8
BOT
 66
      1
 70
1
 40
0.0100
 41
0.0100
  0
VERTEX
  8
BOT
 10
0.2950
 20
1.3910
 30
 0.0
 42
1.0
  0
VERTEX
  8
BOT
 10
0.3050
 20
1.3910
 30
 0.0
 42
1.0
  0
SEQEND
  8
BOT
  0
POLYLINE
  8
BOT
 66
      1
 70
0
 40
0.0200
 41
0.0200
  0
VERTEX
  8
BOT
 10
0.3000
 20
1.3910
 30
 0.0
  0
VERTEX
  8
BOT
 10
0.3200
 20
1.3710
 30
 0.0
  0
SEQEND
  8
BOT
  0
POLYLINE
  8
BOT
 66
      1
 70
1
 40
0.0100
 41
0.0100
  0
VERTEX
  8
BOT
 10
0.2950
 20
1.3910
 30
 0.0
 42
1.0
  0
VERTEX
  8
BOT
 10
0.3050
 20
1.3910
 30
 0.0
 42
1.0
  0
SEQEND
  8
BOT
  0
POLYLINE
  8
BOT
 66
      1
 70
1
 40
0.0100
 41
0.0100
  0
VERTEX
  8
BOT
 10
0.3150
 20
1.3710
 30
 0.0
 42
1.0
  0
VERTEX
  8
BOT
 10
0.3250
 20
1.3710
 30
 0.0
 42
1.0
  0
SEQEND
  8
BOT
  0
POLYLINE
  8
BOT
 66
      1
 70
0
 40
0.0200
 41
0.0200
  0
VERTEX
  8
BOT
 10
0.3200
 20
1.3710
 30
 0.0
  0
VERTEX
  8
BOT
 10
0.4500
 20
1.3710
 30
 0.0
  0
SEQEND
  8
BOT
  0
POLYLINE
  8
BOT
 66
      1
 70
1
 40
0.0100
 41
0.0100
  0
VERTEX
  8
BOT
 10
0.3150
 20
1.3710
 30
 0.0
 42
1.0
  0
VERTEX
  8
BOT
 10
0.3250
 20
1.3710
 30
 0.0
 42
1.0
  0
SEQEND
  8
BOT
  0
POLYLINE
  8
BOT
 66
      1
 70
1
 40
0.0100
 41
0.0100
  0
VERTEX
  8
BOT
 10
0.4450
 20
1.3710
 30
 0.0
 42
1.0
  0
VERTEX
  8
BOT
 10
0.4550
 20
1.3710
 30
 0.0
 42
1.0
  0
SEQEND
  8
BOT
  0
POLYLINE
  8
BOT
 66
      1
 70
0
 40
0.0200
 41
0.0200
  0
VERTEX
  8
BOT
 10
1.1500
 20
1.4210
 30
 0.0
  0
VERTEX
  8
BOT
 10
1.1500
 20
1.2110
 30
 0.0
  0
SEQEND
  8
BOT
  0
POLYLINE
  8
BOT
 66
      1
 70
1
 40
0.0100
 41
0.0100
  0
VERTEX
  8
BOT
 10
1.1450
 20
1.4210
 30
 0.0
 42
1.0
  0
VERTEX
  8
BOT
 10
1.1550
 20
1.4210
 30
 0.0
 42
1.0
  0
SEQEND
  8
BOT
  0
POLYLINE
  8
BOT
 66
      1
 70
1
 40
0.0100
 41
0.0100
  0
VERTEX
  8
BOT
 10
1.1450
 20
1.2110
 30
 0.0
 42
1.0
  0
VERTEX
  8
BOT
 10
1.1550
 20
1.2110
 30
 0.0
 42
1.0
  0
SEQEND
  8
BOT
  0
POLYLINE
  8
BOT
 66
      1
 70
0
 40
0.0200
 41
0.0200
  0
VERTEX
  8
BOT
 10
1.1500
 20
1.2110
 30
 0.0
  0
VERTEX
  8
BOT
 10
1.1100
 20
1.1710
 30
 0.0
  0
SEQEND
  8
BOT
  0
POLYLINE
  8
BOT
 66
      1
 70
1
 40
0.0100
 41
0.0100
  0
VERTEX
  8
BOT
 10
1.1450
 20
1.2110
 30
 0.0
 42
1.0
  0
VERTEX
  8
BOT
 10
1.1550
 20
1.2110
 30
 0.0
 42
1.0
  0
SEQEND
  8
BOT
  0
POLYLINE
  8
BOT
 66
      1
 70
1
 40
0.0100
 41
0.0100
  0
VERTEX
  8
BOT
 10
1.1050
 20
1.1710
 30
 0.0
 42
1.0
  0
VERTEX
  8
BOT
 10
1.1150
 20
1.1710
 30
 0.0
 42
1.0
  0
SEQEND
  8
BOT
  0
POLYLINE
  8
BOT
 66
      1
 70
0
 40
0.0200
 41
0.0200
  0
VERTEX
  8
BOT
 10
1.1100
 20
1.1710
 30
 0.0
  0
VERTEX
  8
BOT
 10
1.0500
 20
1.1710
 30
 0.0
  0
SEQEND
  8
BOT
  0
POLYLINE
  8
BOT
 66
      1
 70
1
 40
0.0100
 41
0.0100
  0
VERTEX
  8
BOT
 10
1.1050
 20
1.1710
 30
 0.0
 42
1.0
  0
VERTEX
  8
BOT
 10
1.1150
 20
1.1710
 30
 0.0
 42
1.0
  0
SEQEND
  8
BOT
  0
POLYLINE
  8
BOT
 66
      1
 70
1
 40
0.0100
 41
0.0100
  0
VERTEX
  8
BOT
 10
1.0450
 20
1.1710
 30
 0.0
 42
1.0
  0
VERTEX
  8
BOT
 10
1.0550
 20
1.1710
 30
 0.0
 42
1.0
  0
SEQEND
  8
BOT
  0
POLYLINE
  8
BOT
 66
      1
 70
0
 40
0.0200
 41
0.0200
  0
VERTEX
  8
BOT
 10
0.9250
 20
0.6710
 30
 0.0
  0
VERTEX
  8
BOT
 10
0.9500
 20
0.6710
 30
 0.0
  0
SEQEND
  8
BOT
  0
POLYLINE
  8
BOT
 66
      1
 70
1
 40
0.0100
 41
0.0100
  0
VERTEX
  8
BOT
 10
0.9200
 20
0.6710
 30
 0.0
 42
1.0
  0
VERTEX
  8
BOT
 10
0.9300
 20
0.6710
 30
 0.0
 42
1.0
  0
SEQEND
  8
BOT
  0
POLYLINE
  8
BOT
 66
      1
 70
1
 40
0.0100
 41
0.0100
  0
VERTEX
  8
BOT
 10
0.9450
 20
0.6710
 30
 0.0
 42
1.0
  0
VERTEX
  8
BOT
 10
0.9550
 20
0.6710
 30
 0.0
 42
1.0
  0
SEQEND
  8
BOT
  0
POLYLINE
  8
BOT
 66
      1
 70
0
 40
0.0200
 41
0.0200
  0
VERTEX
  8
BOT
 10
0.9500
 20
0.6710
 30
 0.0
  0
VERTEX
  8
BOT
 10
0.9500
 20
0.8210
 30
 0.0
  0
SEQEND
  8
BOT
  0
POLYLINE
  8
BOT
 66
      1
 70
1
 40
0.0100
 41
0.0100
  0
VERTEX
  8
BOT
 10
0.9450
 20
0.6710
 30
 0.0
 42
1.0
  0
VERTEX
  8
BOT
 10
0.9550
 20
0.6710
 30
 0.0
 42
1.0
  0
SEQEND
  8
BOT
  0
POLYLINE
  8
BOT
 66
      1
 70
1
 40
0.0100
 41
0.0100
  0
VERTEX
  8
BOT
 10
0.9450
 20
0.8210
 30
 0.0
 42
1.0
  0
VERTEX
  8
BOT
 10
0.9550
 20
0.8210
 30
 0.0
 42
1.0
  0
SEQEND
  8
BOT
  0
POLYLINE
  8
BOT
 66
      1
 70
0
 40
0.0200
 41
0.0200
  0
VERTEX
  8
BOT
 10
0.9500
 20
0.9210
 30
 0.0
  0
VERTEX
  8
BOT
 10
0.6800
 20
0.9210
 30
 0.0
  0
SEQEND
  8
BOT
  0
POLYLINE
  8
BOT
 66
      1
 70
1
 40
0.0100
 41
0.0100
  0
VERTEX
  8
BOT
 10
0.9450
 20
0.9210
 30
 0.0
 42
1.0
  0
VERTEX
  8
BOT
 10
0.9550
 20
0.9210
 30
 0.0
 42
1.0
  0
SEQEND
  8
BOT
  0
POLYLINE
  8
BOT
 66
      1
 70
1
 40
0.0100
 41
0.0100
  0
VERTEX
  8
BOT
 10
0.6750
 20
0.9210
 30
 0.0
 42
1.0
  0
VERTEX
  8
BOT
 10
0.6850
 20
0.9210
 30
 0.0
 42
1.0
  0
SEQEND
  8
BOT
  0
POLYLINE
  8
BOT
 66
      1
 70
0
 40
0.0200
 41
0.0200
  0
VERTEX
  8
BOT
 10
0.6800
 20
0.9210
 30
 0.0
  0
VERTEX
  8
BOT
 10
0.6300
 20
0.8710
 30
 0.0
  0
SEQEND
  8
BOT
  0
POLYLINE
  8
BOT
 66
      1
 70
1
 40
0.0100
 41
0.0100
  0
VERTEX
  8
BOT
 10
0.6750
 20
0.9210
 30
 0.0
 42
1.0
  0
VERTEX
  8
BOT
 10
0.6850
 20
0.9210
 30
 0.0
 42
1.0
  0
SEQEND
  8
BOT
  0
POLYLINE
  8
BOT
 66
      1
 70
1
 40
0.0100
 41
0.0100
  0
VERTEX
  8
BOT
 10
0.6250
 20
0.8710
 30
 0.0
 42
1.0
  0
VERTEX
  8
BOT
 10
0.6350
 20
0.8710
 30
 0.0
 42
1.0
  0
SEQEND
  8
BOT
  0
POLYLINE
  8
BOT
 66
      1
 70
0
 40
0.0200
 41
0.0200
  0
VERTEX
  8
BOT
 10
0.6300
 20
0.8710
 30
 0.0
  0
VERTEX
  8
BOT
 10
0.6000
 20
0.8710
 30
 0.0
  0
SEQEND
  8
BOT
  0
POLYLINE
  8
BOT
 66
      1
 70
1
 40
0.0100
 41
0.0100
  0
VERTEX
  8
BOT
 10
0.6250
 20
0.8710
 30
 0.0
 42
1.0
  0
VERTEX
  8
BOT
 10
0.6350
 20
0.8710
 30
 0.0
 42
1.0
  0
SEQEND
  8
BOT
  0
POLYLINE
  8
BOT
 66
      1
 70
1
 40
0.0100
 41
0.0100
  0
VERTEX
  8
BOT
 10
0.5950
 20
0.8710
 30
 0.0
 42
1.0
  0
VERTEX
  8
BOT
 10
0.6050
 20
0.8710
 30
 0.0
 42
1.0
  0
SEQEND
  8
BOT
  0
POLYLINE
  8
BOT
 66
      1
 70
0
 40
0.0200
 41
0.0200
  0
VERTEX
  8
BOT
 10
0.6000
 20
1.4460
 30
 0.0
  0
VERTEX
  8
BOT
 10
0.6000
 20
1.3910
 30
 0.0
  0
SEQEND
  8
BOT
  0
POLYLINE
  8
BOT
 66
      1
 70
1
 40
0.0100
 41
0.0100
  0
VERTEX
  8
BOT
 10
0.5950
 20
1.4460
 30
 0.0
 42
1.0
  0
VERTEX
  8
BOT
 10
0.6050
 20
1.4460
 30
 0.0
 42
1.0
  0
SEQEND
  8
BOT
  0
POLYLINE
  8
BOT
 66
      1
 70
1
 40
0.0100
 41
0.0100
  0
VERTEX
  8
BOT
 10
0.5950
 20
1.3910
 30
 0.0
 42
1.0
  0
VERTEX
  8
BOT
 10
0.6050
 20
1.3910
 30
 0.0
 42
1.0
  0
SEQEND
  8
BOT
  0
POLYLINE
  8
BOT
 66
      1
 70
0
 40
0.0200
 41
0.0200
  0
VERTEX
  8
BOT
 10
0.6000
 20
1.3910
 30
 0.0
  0
VERTEX
  8
BOT
 10
0.5800
 20
1.3710
 30
 0.0
  0
SEQEND
  8
BOT
  0
POLYLINE
  8
BOT
 66
      1
 70
1
 40
0.0100
 41
0.0100
  0
VERTEX
  8
BOT
 10
0.5950
 20
1.3910
 30
 0.0
 42
1.0
  0
VERTEX
  8
BOT
 10
0.6050
 20
1.3910
 30
 0.0
 42
1.0
  0
SEQEND
  8
BOT
  0
POLYLINE
  8
BOT
 66
      1
 70
1
 40
0.0100
 41
0.0100
  0
VERTEX
  8
BOT
 10
0.5750
 20
1.3710
 30
 0.0
 42
1.0
  0
VERTEX
  8
BOT
 10
0.5850
 20
1.3710
 30
 0.0
 42
1.0
  0
SEQEND
  8
BOT
  0
POLYLINE
  8
BOT
 66
      1
 70
0
 40
0.0200
 41
0.0200
  0
VERTEX
  8
BOT
 10
0.5800
 20
1.3710
 30
 0.0
  0
VERTEX
  8
BOT
 10
0.4500
 20
1.3710
 30
 0.0
  0
SEQEND
  8
BOT
  0
POLYLINE
  8
BOT
 66
      1
 70
1
 40
0.0100
 41
0.0100
  0
VERTEX
  8
BOT
 10
0.5750
 20
1.3710
 30
 0.0
 42
1.0
  0
VERTEX
  8
BOT
 10
0.5850
 20
1.3710
 30
 0.0
 42
1.0
  0
SEQEND
  8
BOT
  0
POLYLINE
  8
BOT
 66
      1
 70
1
 40
0.0100
 41
0.0100
  0
VERTEX
  8
BOT
 10
0.4450
 20
1.3710
 30
 0.0
 42
1.0
  0
VERTEX
  8
BOT
 10
0.4550
 20
1.3710
 30
 0.0
 42
1.0
  0
SEQEND
  8
BOT
  0
POLYLINE
  8
BOT
 66
      1
 70
0
 40
0.0200
 41
0.0200
  0
VERTEX
  8
BOT
 10
0.1500
 20
0.6210
 30
 0.0
  0
VERTEX
  8
BOT
 10
0.4500
 20
0.6210
 30
 0.0
  0
SEQEND
  8
BOT
  0
POLYLINE
  8
BOT
 66
      1
 70
1
 40
0.0100
 41
0.0100
  0
VERTEX
  8
BOT
 10
0.1450
 20
0.6210
 30
 0.0
 42
1.0
  0
VERTEX
  8
BOT
 10
0.1550
 20
0.6210
 30
 0.0
 42
1.0
  0
SEQEND
  8
BOT
  0
POLYLINE
  8
BOT
 66
      1
 70
1
 40
0.0100
 41
0.0100
  0
VERTEX
  8
BOT
 10
0.4450
 20
0.6210
 30
 0.0
 42
1.0
  0
VERTEX
  8
BOT
 10
0.4550
 20
0.6210
 30
 0.0
 42
1.0
  0
SEQEND
  8
BOT
  0
POLYLINE
  8
BOT
 66
      1
 70
0
 40
0.0200
 41
0.0200
  0
VERTEX
  8
BOT
 10
0.4500
 20
0.6210
 30
 0.0
  0
VERTEX
  8
BOT
 10
0.5000
 20
0.6710
 30
 0.0
  0
SEQEND
  8
BOT
  0
POLYLINE
  8
BOT
 66
      1
 70
1
 40
0.0100
 41
0.0100
  0
VERTEX
  8
BOT
 10
0.4450
 20
0.6210
 30
 0.0
 42
1.0
  0
VERTEX
  8
BOT
 10
0.4550
 20
0.6210
 30
 0.0
 42
1.0
  0
SEQEND
  8
BOT
  0
POLYLINE
  8
BOT
 66
      1
 70
1
 40
0.0100
 41
0.0100
  0
VERTEX
  8
BOT
 10
0.4950
 20
0.6710
 30
 0.0
 42
1.0
  0
VERTEX
  8
BOT
 10
0.5050
 20
0.6710
 30
 0.0
 42
1.0
  0
SEQEND
  8
BOT
  0
POLYLINE
  8
BOT
 66
      1
 70
0
 40
0.0200
 41
0.0200
  0
VERTEX
  8
BOT
 10
0.4500
 20
1.0710
 30
 0.0
  0
VERTEX
  8
BOT
 10
0.1900
 20
1.0710
 30
 0.0
  0
SEQEND
  8
BOT
  0
POLYLINE
  8
BOT
 66
      1
 70
1
 40
0.0100
 41
0.0100
  0
VERTEX
  8
BOT
 10
0.4450
 20
1.0710
 30
 0.0
 42
1.0
  0
VERTEX
  8
BOT
 10
0.4550
 20
1.0710
 30
 0.0
 42
1.0
  0
SEQEND
  8
BOT
  0
POLYLINE
  8
BOT
 66
      1
 70
1
 40
0.0100
 41
0.0100
  0
VERTEX
  8
BOT
 10
0.1850
 20
1.0710
 30
 0.0
 42
1.0
  0
VERTEX
  8
BOT
 10
0.1950
 20
1.0710
 30
 0.0
 42
1.0
  0
SEQEND
  8
BOT
  0
POLYLINE
  8
BOT
 66
      1
 70
0
 40
0.0200
 41
0.0200
  0
VERTEX
  8
BOT
 10
0.1900
 20
1.0710
 30
 0.0
  0
VERTEX
  8
BOT
 10
0.0700
 20
0.9510
 30
 0.0
  0
SEQEND
  8
BOT
  0
POLYLINE
  8
BOT
 66
      1
 70
1
 40
0.0100
 41
0.0100
  0
VERTEX
  8
BOT
 10
0.1850
 20
1.0710
 30
 0.0
 42
1.0
  0
VERTEX
  8
BOT
 10
0.1950
 20
1.0710
 30
 0.0
 42
1.0
  0
SEQEND
  8
BOT
  0
POLYLINE
  8
BOT
 66
      1
 70
1
 40
0.0100
 41
0.0100
  0
VERTEX
  8
BOT
 10
0.0650
 20
0.9510
 30
 0.0
 42
1.0
  0
VERTEX
  8
BOT
 10
0.0750
 20
0.9510
 30
 0.0
 42
1.0
  0
SEQEND
  8
BOT
  0
POLYLINE
  8
BOT
 66
      1
 70
0
 40
0.0200
 41
0.0200
  0
VERTEX
  8
BOT
 10
0.0700
 20
0.9510
 30
 0.0
  0
VERTEX
  8
BOT
 10
0.0700
 20
0.7010
 30
 0.0
  0
SEQEND
  8
BOT
  0
POLYLINE
  8
BOT
 66
      1
 70
1
 40
0.0100
 41
0.0100
  0
VERTEX
  8
BOT
 10
0.0650
 20
0.9510
 30
 0.0
 42
1.0
  0
VERTEX
  8
BOT
 10
0.0750
 20
0.9510
 30
 0.0
 42
1.0
  0
SEQEND
  8
BOT
  0
POLYLINE
  8
BOT
 66
      1
 70
1
 40
0.0100
 41
0.0100
  0
VERTEX
  8
BOT
 10
0.0650
 20
0.7010
 30
 0.0
 42
1.0
  0
VERTEX
  8
BOT
 10
0.0750
 20
0.7010
 30
 0.0
 42
1.0
  0
SEQEND
  8
BOT
  0
POLYLINE
  8
BOT
 66
      1
 70
0
 40
0.0200
 41
0.0200
  0
VERTEX
  8
BOT
 10
0.0700
 20
0.7010
 30
 0.0
  0
VERTEX
  8
BOT
 10
0.1500
 20
0.6210
 30
 0.0
  0
SEQEND
  8
BOT
  0
POLYLINE
  8
BOT
 66
      1
 70
1
 40
0.0100
 41
0.0100
  0
VERTEX
  8
BOT
 10
0.0650
 20
0.7010
 30
 0.0
 42
1.0
  0
VERTEX
  8
BOT
 10
0.0750
 20
0.7010
 30
 0.0
 42
1.0
  0
SEQEND
  8
BOT
  0
POLYLINE
  8
BOT
 66
      1
 70
1
 40
0.0100
 41
0.0100
  0
VERTEX
  8
BOT
 10
0.1450
 20
0.6210
 30
 0.0
 42
1.0
  0
VERTEX
  8
BOT
 10
0.1550
 20
0.6210
 30
 0.0
 42
1.0
  0
SEQEND
  8
BOT
  0
POLYLINE
  8
BOT
 66
      1
 70
0
 40
0.0200
 41
0.0200
  0
VERTEX
  8
BOT
 10
0.8500
 20
1.2710
 30
 0.0
  0
VERTEX
  8
BOT
 10
0.8500
 20
1.0610
 30
 0.0
  0
SEQEND
  8
BOT
  0
POLYLINE
  8
BOT
 66
      1
 70
1
 40
0.0100
 41
0.0100
  0
VERTEX
  8
BOT
 10
0.8450
 20
1.2710
 30
 0.0
 42
1.0
  0
VERTEX
  8
BOT
 10
0.8550
 20
1.2710
 30
 0.0
 42
1.0
  0
SEQEND
  8
BOT
  0
POLYLINE
  8
BOT
 66
      1
 70
1
 40
0.0100
 41
0.0100
  0
VERTEX
  8
BOT
 10
0.8450
 20
1.0610
 30
 0.0
 42
1.0
  0
VERTEX
  8
BOT
 10
0.8550
 20
1.0610
 30
 0.0
 42
1.0
  0
SEQEND
  8
BOT
  0
POLYLINE
  8
BOT
 66
      1
 70
0
 40
0.0200
 41
0.0200
  0
VERTEX
  8
BOT
 10
0.8500
 20
1.0610
 30
 0.0
  0
VERTEX
  8
BOT
 10
0.8100
 20
1.0210
 30
 0.0
  0
SEQEND
  8
BOT
  0
POLYLINE
  8
BOT
 66
      1
 70
1
 40
0.0100
 41
0.0100
  0
VERTEX
  8
BOT
 10
0.8450
 20
1.0610
 30
 0.0
 42
1.0
  0
VERTEX
  8
BOT
 10
0.8550
 20
1.0610
 30
 0.0
 42
1.0
  0
SEQEND
  8
BOT
  0
POLYLINE
  8
BOT
 66
      1
 70
1
 40
0.0100
 41
0.0100
  0
VERTEX
  8
BOT
 10
0.8050
 20
1.0210
 30
 0.0
 42
1.0
  0
VERTEX
  8
BOT
 10
0.8150
 20
1.0210
 30
 0.0
 42
1.0
  0
SEQEND
  8
BOT
  0
POLYLINE
  8
BOT
 66
      1
 70
0
 40
0.0200
 41
0.0200
  0
VERTEX
  8
BOT
 10
0.8100
 20
1.0210
 30
 0.0
  0
VERTEX
  8
BOT
 10
0.6000
 20
1.0210
 30
 0.0
  0
SEQEND
  8
BOT
  0
POLYLINE
  8
BOT
 66
      1
 70
1
 40
0.0100
 41
0.0100
  0
VERTEX
  8
BOT
 10
0.8050
 20
1.0210
 30
 0.0
 42
1.0
  0
VERTEX
  8
BOT
 10
0.8150
 20
1.0210
 30
 0.0
 42
1.0
  0
SEQEND
  8
BOT
  0
POLYLINE
  8
BOT
 66
      1
 70
1
 40
0.0100
 41
0.0100
  0
VERTEX
  8
BOT
 10
0.5950
 20
1.0210
 30
 0.0
 42
1.0
  0
VERTEX
  8
BOT
 10
0.6050
 20
1.0210
 30
 0.0
 42
1.0
  0
SEQEND
  8
BOT
  0
POLYLINE
  8
BOT
 66
      1
 70
0
 40
0.0300
 41
0.0300
  0
VERTEX
  8
BOT
 10
0.1500
 20
0.8710
 30
 0.0
  0
VERTEX
  8
BOT
 10
0.3000
 20
0.8710
 30
 0.0
  0
SEQEND
  8
BOT
  0
POLYLINE
  8
BOT
 66
      1
 70
1
 40
0.0150
 41
0.0150
  0
VERTEX
  8
BOT
 10
0.1425
 20
0.8710
 30
 0.0
 42
1.0
  0
VERTEX
  8
BOT
 10
0.1575
 20
0.8710
 30
 0.0
 42
1.0
  0
SEQEND
  8
BOT
  0
POLYLINE
  8
BOT
 66
      1
 70
1
 40
0.0150
 41
0.0150
  0
VERTEX
  8
BOT
 10
0.2925
 20
0.8710
 30
 0.0
 42
1.0
  0
VERTEX
  8
BOT
 10
0.3075
 20
0.8710
 30
 0.0
 42
1.0
  0
SEQEND
  8
BOT
  0
TEXT
  8
AST
 10
1.0020
 20
1.3910
 40
0.0500
 41
0.8000
  1
R1
 50
180.0000
  0
TEXT
  8
AST
 10
0.5150
 20
0.8410
 40
0.0500
 41
0.8000
  1
C2
 50
180.0000
  0
TEXT
  8
AST
 10
0.8870
 20
1.2400
 40
0.0500
 41
0.8000
  1
L1
 50
0.0000
  0
TEXT
  8
AST
 10
0.6290
 20
1.2980
 40
0.0500
 41
0.8000
  1
R3
 50
270.0000
  0
TEXT
  8
AST
 10
0.2710
 20
1.1690
 40
0.0500
 41
0.8000
  1
R2
 50
90.0000
  0
TEXT
  8
AST
 10
0.6480
 20
0.7000
 40
0.0500
 41
0.8000
  1
R4
 50
0.0000
  0
TEXT
  8
AST
 10
0.4790
 20
1.2850
 40
0.0500
 41
0.8000
  1
C1
 50
270.0000
  0
TEXT
  8
AST
 10
0.7310
 20
1.4900
 40
0.0500
 41
0.8000
  1
13
 50
0.0000
  0
TEXT
  8
AST
 10
0.9810
 20
1.4900
 40
0.0500
 41
0.8000
  1
14
 50
0.0000
  0
TEXT
  8
AST
 10
0.0810
 20
0.6900
 40
0.0500
 41
0.8000
  1
15
 50
0.0000
  0
TEXT
  8
AST
 10
0.0810
 20
0.4400
 40
0.0500
 41
0.8000
  1
16
 50
0.0000
  0
TEXT
  8
AST
 10
1.0170
 20
0.9820
 40
0.0500
 41
0.8000
  1
Q1
 50
270.0000
  0
TEXT
  8
AST
 10
0.0250
 20
1.7710
 40
0.0800
 41
0.8000
  1
9
 50
0.0000
  0
TEXT
  8
AST
 10
0.0250
 20
0.4210
 40
0.0800
 41
0.8000
  1
10
 50
0.0000
  0
TEXT
  8
AST
 10
1.3250
 20
0.4210
 40
0.0800
 41
0.8000
  1
11
 50
0.0000
  0
TEXT
  8
AST
 10
1.3250
 20
1.7710
 40
0.0800
 41
0.8000
  1
12
 50
0.0000
  0
ENDSEC
  0
EOF
